<?xml version="1.0" encoding="UTF-8"?>
<!DOCTYPE svg PUBLIC "-//W3C//DTD SVG 1.1//EN" "http://www.w3.org/Graphics/SVG/1.1/DTD/svg11.dtd">
<!-- Creator: CorelDRAW 2021 (64 Bit) -->
<svg xmlns="http://www.w3.org/2000/svg" xml:space="preserve" width="67.177mm" height="67.7333mm" version="1.1" style="shape-rendering:geometricPrecision; text-rendering:geometricPrecision; image-rendering:optimizeQuality; fill-rule:evenodd; clip-rule:evenodd" viewBox="0 0 2141.63 2159.36" xmlns:xlink="http://www.w3.org/1999/xlink" xmlns:xodm="http://www.corel.com/coreldraw/odm/2003">
  <defs>
    <style type="text/css">
      <![CDATA[
      .fil1 {
        fill: black;
        fill-rule: nonzero
      }

      .fil0 {
        fill: #DA251C;
        fill-rule: nonzero
      }
      ]]>
    </style>
  </defs>
  <g id="Camada_x0020_1">
    <metadata id="CorelCorpID_0Corel-Layer" />
    <g id="_2220379019136">
      <path class="fil0" d="M877.87 1103.97l47.93 22.3 -47.93 22.2 0 -44.5zm381.34 44.71l-47.94 -22.3 47.94 -22.2 0 44.5zm439.94 -23.74c0,75.4 -46.08,145.04 -115.16,174.8l-204.28 -95.01 0 -156.8 42.23 -19.63 0.02 0.04 165.17 -76.87c68.22,30.48 112.02,98.04 112.02,173.48zm-454.34 515.79c-30.48,68.22 -98.04,112.03 -173.48,112.03 -75.42,0 -145.05,-46.08 -174.8,-115.17l95 -204.27 156.81 0 22.93 49.3 -0.04 0.03 73.58 158.08zm-349.74 -1051.09c30.48,-68.21 98.04,-112.02 173.48,-112.02 75.41,0 145.05,46.09 174.8,115.16l-95 204.28 -156.81 0 -23.35 -50.21 0.05 -0.04 -73.17 -157.16zm174.93 375.85l-22.2 -47.93 44.49 0 -22.29 47.93zm-632.07 162.21c0,-75.41 46.09,-145.04 115.17,-174.8l204.27 95.01 0 156.8 -42.55 19.79 -0.02 -0.05 -164.85 76.72c-68.21,-30.47 -112.02,-98.04 -112.02,-173.48zm631.95 137.17l22.2 47.94 -44.5 0 22.3 -47.94zm687.11 47.19c40.99,-54.27 62.67,-118.98 62.67,-187.13 0,-67.35 -21.2,-131.43 -61.3,-185.31 -12.94,-17.4 -27.56,-33.33 -43.58,-47.55l76.1 -35.39 -50.82 -109.26 -330.17 153.56c-2.47,1.1 -4.88,2.22 -6.7,3.11l-143.97 66.96 0 0.38 -75.32 34.91 264.93 -569.63 -109.25 -50.82 -36.43 78.31c-14.22,-16.42 -30.13,-31.32 -47.48,-44.43 -54.25,-40.99 -118.95,-62.66 -187.12,-62.66 -67.35,0 -131.42,21.2 -185.3,61.3 -17.4,12.94 -33.34,27.56 -47.55,43.59l-35.38 -76.1 -109.27 50.81 153.56 330.15c1.1,2.47 2.22,4.87 3.12,6.73l66.96 143.97 0.38 0 41.82 90.26 -559.84 -260.39 -50.83 109.25 78.31 36.44c-16.42,14.21 -31.31,30.12 -44.41,47.48 -41,54.25 -62.67,118.96 -62.67,187.11 0,67.34 21.2,131.43 61.3,185.32 12.95,17.4 27.57,33.33 43.58,47.54l-76.1 35.4 50.81 109.26 330.17 -153.57c2.47,-1.09 4.88,-2.22 6.7,-3.11l143.97 -66.96 0 -0.38 65.66 -30.43 -252.5 542.89 109.26 50.83 36.43 -78.3c14.22,16.41 30.13,31.31 47.48,44.42 54.27,40.99 118.97,62.66 187.12,62.66 67.33,0 131.41,-21.19 185.3,-61.3 17.4,-12.94 33.34,-27.55 47.55,-43.58l35.39 76.1 109.25 -50.83 -153.56 -330.15c-1.09,-2.46 -2.21,-4.85 -3.11,-6.71l-66.96 -143.98 -0.38 0 -27.9 -60.22 543.14 252.63 50.82 -109.26 -78.31 -36.43c16.42,-14.22 31.32,-30.14 44.43,-47.47z" />
      <path class="fil1" d="M1540.22 226.64c11.95,6.54 25,3.91 30.42,-5.98 5.52,-10.09 1,-19.81 -9.45,-29.1 -8.58,-7.66 -11.26,-14.73 -7.69,-21.25 3.55,-6.5 12.05,-8.16 19.7,-3.98 7.79,4.26 10.64,12.85 6.74,19.99l6.11 3.34c5.52,-10.08 1.25,-22.3 -10.04,-28.48 -11.26,-6.16 -23.68,-3.53 -28.85,5.93 -5.26,9.62 -1.36,19.37 8.55,28 9.07,8.06 12.42,15.6 8.66,22.49 -3.75,6.86 -12.9,8.54 -21.24,3.98 -8.37,-4.58 -11.71,-13.9 -7.59,-21.44l-6.11 -3.34c-5.71,10.45 -1.05,23.37 10.79,29.84z" />
      <path class="fil1" d="M1731.54 363.16c16.79,15.3 40.29,14.95 54.58,-0.73 14.28,-15.68 12.47,-39.13 -4.33,-54.43 -16.68,-15.19 -40.22,-14.84 -54.5,0.84 -14.28,15.68 -12.42,39.13 4.26,54.32zm4.21 -4.62c-13.73,-12.51 -15.28,-31.87 -3.31,-45.01 11.97,-13.14 31.39,-13.4 45.12,-0.89 13.85,12.62 15.31,31.89 3.33,45.03 -11.97,13.14 -31.3,13.48 -45.15,0.87z" />
      <polygon class="fil1" points="1884.8,526.92 1939.38,489.75 1935.58,484.18 1875.99,524.76 1897.73,556.69 1902.75,553.27 " />
      <path class="fil1" d="M1987.6 734.54c6.37,16.18 22.69,24.02 37.96,18.01l41.51 -16.34 -2.51 -6.37 -41.51 16.34c-11.88,4.67 -24.66,-1.26 -29.64,-13.93 -5.02,-12.76 0.29,-25.81 12.17,-30.48l41.51 -16.34 -2.52 -6.4 -41.51 16.34c-15.27,6.01 -21.87,22.9 -15.47,39.17z" />
      <path class="fil1" d="M2054.44 970.68c-2.35,-18.43 9.02,-34.18 26.65,-36.43 17.63,-2.25 32.59,10.14 34.94,28.57 1.91,14.94 -5.08,27.88 -16.88,33.63l0.92 7.26c15.29,-6.54 24.59,-22.88 22.19,-41.68 -2.86,-22.38 -21.01,-37.37 -42.05,-34.69 -20.22,2.58 -33.76,20.25 -32.21,41.5l-6.73 -4.05 -1.17 3.91c0.94,0.8 1.88,2.36 2.08,3.88 0.43,3.39 -1.64,6.35 -4.96,6.77 -3.2,0.41 -6.04,-1.92 -6.47,-5.31 -0.42,-3.3 1.73,-6.36 4.93,-6.77l-0.53 -4.17c-5.17,0.66 -8.75,5.58 -8.01,11.4 0.75,5.82 5.46,9.81 10.64,9.15 5.2,-0.66 8.71,-5.26 8.02,-10.64 -0.06,-0.43 -0.13,-0.99 -0.27,-1.42l3 1.96c3.09,17.7 15.87,30.34 31.64,32.69l-0.92 -7.25c-12.84,-2.6 -22.88,-13.37 -24.78,-28.32z" />
      <path class="fil1" d="M2128.34 1238.7c-0.78,6.26 3.27,10.87 9.5,11.65l0.6 -4.82c-3.44,-0.43 -5.58,-3.35 -5.14,-6.87 0.69,-5.51 7.35,-6.8 8.23,-13.84 0.76,-6.14 -3.37,-10.79 -9.48,-11.55l-0.59 4.73c3.29,0.41 5.58,3.39 5.13,6.99 -0.69,5.51 -7.38,6.79 -8.24,13.71zm-80.24 -17.71c-2.81,22.55 11.04,41.53 32.08,44.16 21.05,2.62 39.16,-12.39 41.96,-34.93 2.79,-22.39 -11.08,-41.41 -32.13,-44.03 -21.05,-2.62 -39.13,12.42 -41.92,34.81zm6.2 0.77c2.3,-18.43 17.22,-30.87 34.86,-28.67 17.64,2.2 29.05,17.91 26.76,36.35 -2.32,18.59 -17.22,30.9 -34.86,28.7 -17.64,-2.2 -29.07,-17.79 -26.75,-36.38z" />
      <polygon class="fil1" points="2002.5,1440.44 2027.89,1450.07 2016.9,1479.06 2022.55,1481.2 2033.54,1452.21 2058.58,1461.71 2046.29,1494.1 2051.95,1496.25 2066.63,1457.55 1999.21,1431.97 1984.33,1471.2 1990.01,1473.35 " />
      <path class="fil1" d="M1891.67 1643.56c-7.52,11.35 -6.01,24.58 3.4,30.82 9.58,6.35 19.66,2.67 29.8,-6.95 8.36,-7.9 15.63,-9.97 21.83,-5.87 6.17,4.09 7.12,12.69 2.3,19.97 -4.9,7.41 -13.7,9.52 -20.49,5.02l-3.85 5.81c9.58,6.35 22.12,3.13 29.22,-7.59 7.09,-10.7 5.52,-23.29 -3.47,-29.25 -9.14,-6.05 -19.19,-3 -28.63,6.15 -8.8,8.36 -16.6,11.06 -23.14,6.73 -6.52,-4.32 -7.42,-13.57 -2.17,-21.5 5.27,-7.95 14.84,-10.5 22,-5.75l3.85 -5.81c-9.93,-6.57 -23.19,-3.02 -30.65,8.23z" />
      <path class="fil1" d="M1569.31 1951.82l-6.45 4.06 65.69 43.82 6.93 -4.37 -11.19 -78.17 -6.29 3.97 3.16 21.37 -33.9 21.37 -17.94 -12.04zm52.76 -2.87l6.35 42.68 -35.85 -24.08 29.49 -18.59z" />
      <path class="fil1" d="M1381.4 2036.19c-16.47,5.57 -25.1,21.49 -19.84,37.04l14.29 42.26 6.48 -2.19 -14.29 -42.27c-4.09,-12.09 2.46,-24.56 15.36,-28.93 12.99,-4.39 25.76,1.55 29.85,13.64l14.29 42.26 6.51 -2.2 -14.29 -42.26c-5.26,-15.54 -21.81,-22.96 -38.36,-17.36z" />
      <polygon class="fil1" points="1136.76,2159.36 1189.88,2154.46 1189.32,2148.44 1166.17,2150.58 1160.1,2084.8 1153.29,2085.43 1159.36,2151.21 1136.2,2153.35 " />
      <path class="fil1" d="M927.03 2078.32c-22.55,-2.81 -41.54,11.04 -44.16,32.08 -2.62,21.04 12.39,39.15 34.93,41.96 22.39,2.79 41.42,-11.08 44.04,-32.13 2.62,-21.04 -12.42,-39.13 -34.81,-41.92zm-0.77 6.2c18.43,2.3 30.87,17.22 28.67,34.86 -2.2,17.64 -17.92,29.05 -36.35,26.75 -18.59,-2.31 -30.9,-17.22 -28.71,-34.86 2.2,-17.64 17.79,-29.07 36.38,-26.75z" />
      <polygon class="fil1" points="624.06,2066.57 676.57,2020.36 680.43,2090.21 688.79,2093.72 716.67,2027.22 710.45,2024.61 686.57,2081.57 682.67,2012.97 677.66,2010.86 626.03,2056.19 649.91,1999.23 643.69,1996.62 615.81,2063.11 " />
      <path class="fil1" d="M460.18 1882.49c-17.99,-13.87 -41.38,-11.59 -54.33,5.21 -12.95,16.8 -9.22,40.02 8.78,53.89 17.87,13.78 41.3,11.49 54.25,-5.3 12.95,-16.8 9.18,-40.02 -8.69,-53.79zm-3.82 4.95c14.71,11.34 17.84,30.51 6.99,44.59 -10.85,14.08 -30.18,15.92 -44.9,4.58 -14.84,-11.44 -17.87,-30.53 -7.02,-44.61 10.85,-14.08 30.09,-16 44.93,-4.57z" />
      <polygon class="fil1" points="221.75,1747.48 255.39,1788.88 260.08,1785.07 245.42,1767.02 296.69,1725.36 292.37,1720.05 241.1,1761.71 226.44,1743.67 " />
      <polygon class="fil1" points="113.84,1562.34 108.44,1565.07 121.23,1590.26 126.61,1587.52 121.76,1577.95 175.25,1550.81 180.11,1560.38 185.52,1557.63 172.74,1532.45 167.33,1535.19 172.18,1544.76 118.69,1571.91 " />
      <polygon class="fil1" points="25.27,1329.86 94.22,1341.65 39.16,1384.8 41.07,1392.32 103.04,1343.3 101.25,1336.22 23.42,1322.56 " />
      <path class="fil1" d="M71.74 1083.54l-0.11 -7.62 -71.63 33.23 0.12 8.19 72.56 31.18 -0.11 -7.43 -19.88 -8.44 -0.58 -40.07 19.63 -9.04zm-25.04 46.53l-39.73 -16.81 39.23 -18.04 0.5 34.86z" />
      <path class="fil1" d="M96.14 885.4c2.89,-13.31 -3.32,-25.09 -14.34,-27.49 -11.23,-2.44 -19.28,4.64 -25.24,17.29 -4.92,10.39 -10.95,14.96 -18.21,13.39 -7.23,-1.57 -11.24,-9.25 -9.39,-17.77 1.88,-8.68 9.31,-13.84 17.27,-12.11l1.48 -6.81c-11.23,-2.44 -21.75,5.11 -24.48,17.68 -2.72,12.54 3.31,23.71 13.85,26 10.71,2.32 18.97,-4.17 24.44,-16.12 5.17,-10.98 11.45,-16.33 19.13,-14.66 7.64,1.66 11.84,9.96 9.83,19.25 -2.02,9.32 -10.02,15.16 -18.42,13.34l-1.48 6.81c11.64,2.52 22.71,-5.6 25.57,-18.79z" />
      <path class="fil1" d="M270.41 500.5l15.87 -22.47 -110.3 -26.47 -17.09 24.19 61.85 95.02 15.5 -21.94 -11.07 -16.36 26.12 -36.96 19.12 4.98zm-58.39 12.8l-23.42 -34.35 40.23 10.57 -16.8 23.78z" />
      <path class="fil1" d="M325.84 284.59l-30.38 27.86 71.2 77.64 18.48 -16.95 -22.7 -24.75 11.89 -10.91c16.46,-15.09 18.45,-37.82 4.61,-52.91 -13.84,-15.09 -36.65,-15.07 -53.11,0.02zm32.96 36.9l-11.42 10.47 -18.37 -20.03 11.42 -10.48c5.98,-5.48 14.3,-5.24 19.56,0.51 5.15,5.61 4.79,14.04 -1.19,19.53z" />
      <path class="fil1" d="M578.94 230.61l23.58 -14.17 -90.31 -68.63 -25.38 15.26 18.36 111.88 23.03 -13.84 -3.55 -19.43 38.79 -23.31 15.49 12.25zm-58.6 -11.79l-7.61 -40.87 32.57 25.87 -24.96 15z" />
      <path class="fil1" d="M760.77 151.49l28.48 -9.67 -34.73 -30.31c9.73,-9.11 13.67,-22.19 9.31,-35.06 -6.48,-19.1 -27.1,-28.06 -48.11,-20.93l-37.82 12.84 33.85 99.76 23.75 -8.06 -11.59 -34.14 7.17 -2.43 29.69 28zm-51.96 -70.08l13.64 -4.63c7.34,-2.49 14.66,0.97 17.12,8.22 2.41,7.09 -1.3,14.29 -8.64,16.78l-13.64 4.63 -8.48 -25z" />
      <path class="fil1" d="M960.63 52.75c6.55,-4.96 10.48,-14.21 9.32,-23.62 -1.93,-15.59 -16.34,-25.19 -33.03,-23.12l-43.5 5.39 12.96 104.55 47.5 -5.89c17.97,-2.23 29.84,-15.69 27.79,-32.23 -1.54,-12.41 -10.29,-22.58 -21.04,-25.09zm-27.18 -24.76c5.78,-0.72 10.79,2.81 11.5,8.56 0.7,5.63 -3.47,10.42 -9.06,11.11l-13.33 1.65 -2.44 -19.67 13.34 -1.65zm11.7 61.62l-17.34 2.15 -2.8 -22.59 17.33 -2.15c6.73,-0.83 12.5,3.55 13.29,9.91 0.79,6.36 -3.75,11.85 -10.49,12.68z" />
      <path class="fil1" d="M1140.65 108.87c22.45,1.74 40.26,-10.93 41.71,-29.53 1.61,-20.67 -13.88,-29.69 -30.51,-35.28 -10.57,-3.6 -17.69,-7.8 -17.17,-14.49 0.41,-5.35 5.71,-8.93 12.47,-8.41 7.09,0.55 11.89,5.7 11.4,11.91l25.64 1.99c1.42,-18.25 -13.65,-33.23 -35.41,-34.92 -21.3,-1.66 -38.43,10.51 -39.82,28.33 -1.55,19.93 13.2,30.24 29.03,35.34 10.26,3.4 19.16,7.92 18.6,15.08 -0.43,5.61 -6.4,9.57 -13.99,8.98 -7.91,-0.62 -13.61,-6.57 -13.08,-13.39l-25.64 -1.99c-1.48,19.03 14.37,34.63 36.76,36.38z" />
    </g>
  </g>
</svg>